HIERARCHY
ROOT hip
{
  OFFSET 0 0 0
  CHANNELS 6 Xposition Yposition Zposition Zrotation Yrotation Xrotation
  JOINT abdomen
  {
    OFFSET 0 20.6881 -0.73152
    CHANNELS 3 Zrotation Xrotation Yrotation
    JOINT chest
    {
      OFFSET 0 11.7043 -0.48768
      CHANNELS 3 Zrotation Xrotation Yrotation
      JOINT neck
      {
        OFFSET 0 22.1894 -2.19456
        CHANNELS 3 Zrotation Xrotation Yrotation
        JOINT head
        {
          OFFSET -0.24384 7.07133 1.2192
          CHANNELS 3 Zrotation Xrotation Yrotation
          JOINT leftEye
          {
            OFFSET 4.14528 8.04674 8.04672
            CHANNELS 3 Zrotation Xrotation Yrotation
            End Site
            {
              OFFSET 1 0 0
            }
          }
          JOINT rightEye
          {
            OFFSET -3.6576 8.04674 8.04672
            CHANNELS 3 Zrotation Xrotation Yrotation
            End Site
            {
              OFFSET 1 0 0
            }
          }
        }
      }
      JOINT rCollar
      {
        OFFSET -2.68224 19.2634 -4.8768
        CHANNELS 3 Zrotation Xrotation Yrotation
        JOINT rShldr
        {
          OFFSET -8.77824 -1.95073 1.46304
          CHANNELS 3 Zrotation Xrotation Yrotation
          JOINT rForeArm
          {
            OFFSET -28.1742 -1.7115 0.48768
            CHANNELS 3 Zrotation Xrotation Yrotation
            JOINT rHand
            {
              OFFSET -22.5879 0.773209 7.07136
              CHANNELS 3 Zrotation Xrotation Yrotation
              JOINT rThumb1
              {
                OFFSET -1.2192 -0.487915 3.41376
                CHANNELS 3 Zrotation Xrotation Yrotation
                JOINT rThumb2
                {
                  OFFSET -3.37035 -0.52449 3.41376
                  CHANNELS 3 Zrotation Xrotation Yrotation
                  End Site
                  {
                    OFFSET -1.78271 -1.18214 1.43049
                  }
                }
              }
              JOINT rIndex1
              {
                OFFSET -7.75947 0.938293 5.60832
                CHANNELS 3 Zrotation Xrotation Yrotation
                JOINT rIndex2
                {
                  OFFSET -2.54057 -0.884171 1.56538
                  CHANNELS 3 Zrotation Xrotation Yrotation
                  End Site
                  {
                    OFFSET -1.62519 -0.234802 1.16502
                  }
                }
              }
              JOINT rMid1
              {
                OFFSET -8.24714 1.18213 3.41376
                CHANNELS 3 Zrotation Xrotation Yrotation
                JOINT rMid2
                {
                  OFFSET -3.10165 -0.590103 1.0647
                  CHANNELS 3 Zrotation Xrotation Yrotation
                  End Site
                  {
                    OFFSET -2.48547 -0.328903 0.83742
                  }
                }
              }
              JOINT rRing1
              {
                OFFSET -8.82822 0.546677 1.51678
                CHANNELS 3 Zrotation Xrotation Yrotation
                JOINT rRing2
                {
                  OFFSET -2.60934 -0.819778 -0.0198488
                  CHANNELS 3 Zrotation Xrotation Yrotation
                  End Site
                  {
                    OFFSET -2.33842 -0.294052 0.168128
                  }
                }
              }
              JOINT rPinky1
              {
                OFFSET -8.27202 -0.0477905 -0.4584
                CHANNELS 3 Zrotation Xrotation Yrotation
                JOINT rPinky2
                {
                  OFFSET -1.82734 -0.647385 -0.700984
                  CHANNELS 3 Zrotation Xrotation Yrotation
                  End Site
                  {
                    OFFSET -1.69225 -0.51767 -0.607171
                  }
                }
              }
            }
          }
        }
      }
      JOINT lCollar
      {
        OFFSET 2.68224 19.2634 -4.8768
        CHANNELS 3 Zrotation Xrotation Yrotation
        JOINT lShldr
        {
          OFFSET 8.77824 -1.95073 1.46304
          CHANNELS 3 Zrotation Xrotation Yrotation
          JOINT lForeArm
          {
            OFFSET 28.1742 -1.7115 0.48768
            CHANNELS 3 Zrotation Xrotation Yrotation
            JOINT lHand
            {
              OFFSET 22.5879 0.773209 7.07136
              CHANNELS 3 Zrotation Xrotation Yrotation
              JOINT lThumb1
              {
                OFFSET 1.2192 -0.487915 3.41376
                CHANNELS 3 Zrotation Xrotation Yrotation
                JOINT lThumb2
                {
                  OFFSET 3.37035 -0.52449 3.41376
                  CHANNELS 3 Zrotation Xrotation Yrotation
                  End Site
                  {
                    OFFSET 1.78271 -1.18214 1.43049
                  }
                }
              }
              JOINT lIndex1
              {
                OFFSET 7.75947 0.938293 5.60832
                CHANNELS 3 Zrotation Xrotation Yrotation
                JOINT lIndex2
                {
                  OFFSET 2.54057 -0.884171 1.56538
                  CHANNELS 3 Zrotation Xrotation Yrotation
                  End Site
                  {
                    OFFSET 1.62519 -0.234802 1.16502
                  }
                }
              }
              JOINT lMid1
              {
                OFFSET 8.24714 1.18213 3.41376
                CHANNELS 3 Zrotation Xrotation Yrotation
                JOINT lMid2
                {
                  OFFSET 3.10165 -0.590103 1.0647
                  CHANNELS 3 Zrotation Xrotation Yrotation
                  End Site
                  {
                    OFFSET 2.48547 -0.328903 0.83742
                  }
                }
              }
              JOINT lRing1
              {
                OFFSET 8.82822 0.546677 1.51678
                CHANNELS 3 Zrotation Xrotation Yrotation
                JOINT lRing2
                {
                  OFFSET 2.60934 -0.819778 -0.0198488
                  CHANNELS 3 Zrotation Xrotation Yrotation
                  End Site
                  {
                    OFFSET 2.33842 -0.294052 0.168128
                  }
                }
              }
              JOINT lPinky1
              {
                OFFSET 8.27202 -0.0477905 -0.4584
                CHANNELS 3 Zrotation Xrotation Yrotation
                JOINT lPinky2
                {
                  OFFSET 1.82734 -0.647385 -0.700984
                  CHANNELS 3 Zrotation Xrotation Yrotation
                  End Site
                  {
                    OFFSET 1.69225 -0.51767 -0.607171
                  }
                }
              }
            }
          }
        }
      }
    }
  }
  JOINT rButtock
  {
    OFFSET -8.77824 4.35084 1.2192
    CHANNELS 3 Zrotation Xrotation Yrotation
    JOINT rThigh
    {
      OFFSET 0 -1.70687 -2.19456
      CHANNELS 3 Zrotation Xrotation Yrotation
      JOINT rShin
      {
        OFFSET 0 -36.8199 0.73152
        CHANNELS 3 Zrotation Xrotation Yrotation
        JOINT rFoot
        {
          OFFSET 0.73152 -45.1104 -5.12064
          CHANNELS 3 Zrotation Xrotation Yrotation
          End Site
          {
            OFFSET -1.1221 -3.69964 12.103
          }
        }
      }
    }
  }
  JOINT lButtock
  {
    OFFSET 8.77824 4.35084 1.2192
    CHANNELS 3 Zrotation Xrotation Yrotation
    JOINT lThigh
    {
      OFFSET 0 -1.70687 -2.19456
      CHANNELS 3 Zrotation Xrotation Yrotation
      JOINT lShin
      {
        OFFSET 0 -36.8199 0.73152
        CHANNELS 3 Zrotation Xrotation Yrotation
        JOINT lFoot
        {
          OFFSET -0.73152 -45.1104 -5.12064
          CHANNELS 3 Zrotation Xrotation Yrotation
          End Site
          {
            OFFSET 1.1221 -3.69964 12.103
          }
        }
      }
    }
  }
}
MOTION
Frames:	4
Frame Time:	0.00833333
42.0021 85.1968 50.2959 0.0 0.0 0.0 0.58397 -0.00303824 0.0166886 0.161171 -0.0046852 0.0279254 -1.08775e-14 0.0 1.92573e-16 -3.26566e-14 3.18055e-15 5.74612e-16 -0.0 0.0 0.0 -0.0 0.0 0.0 -5.26933e-15 -6.60027e-18 2.98177e-16 -1.12973e-13 3.72721e-17 2.18663e-15 -1.96414e-12 5.85222e-13 3.81667e-14 -2.25033e-11 -5.97547e-13 3.53042e-13 -5.30811e-11 -2.67535e-14 8.74653e-13 -9.16763e-11 -4.77083e-14 1.50758e-12 -5.30759e-11 -2.62396e-14 8.6193e-13 7.73091 5.47488 0.417314 -5.3082e-11 -2.71341e-14 8.68291e-13 2.90554 0.965183 0.102902 -5.30758e-11 -2.65378e-14 8.71472e-13 10.2786 0.731801 0.0259123 -5.30918e-11 -2.38542e-14 8.84194e-13 2.22167 -0.733487 -0.20892 -5.46539e-15 -6.60027e-18 -9.93923e-17 -1.15302e-13 -6.83322e-17 7.95139e-16 -1.96876e-12 -5.90987e-13 8.26944e-14 -2.25043e-11 5.70835e-13 3.30778e-13 -5.30877e-11 -4.33637e-14 8.71472e-13 -9.16699e-11 -7.95139e-14 1.50679e-12 -5.30938e-11 -4.33351e-14 8.84194e-13 -7.73091 5.47488 -0.417314 -5.30874e-11 -4.3832e-14 8.65111e-13 -2.90554 0.965183 -0.102902 -5.3089e-11 -4.39314e-14 8.69882e-13 -10.2786 0.731801 -0.0259123 -5.30819e-11 -4.09496e-14 8.6193e-13 -2.22167 -0.733487 0.20892 -2.03217e-16 0.0 -3.88251e-19 0.939973 -4.56522 -0.0787559 -0.00191288 2.71743 -0.00754108 -0.501022 1.84802 0.0947577 2.03217e-16 0.0 3.88251e-19 -0.050776 -2.31868 0.0217188 0.00816025 -1.35177 0.0697855 0.492798 3.67058 -0.130807
38.9037 83.8485 45.8001 176.327 -79.1323 -175.283 -1.23231 2.45102 1.09736 -0.225901 -0.543487 0.269698 -1.841 2.08159 -0.6191 4.11616 -2.9635 -0.685865 -0.0 0.0 0.0 -0.0 0.0 0.0 -1.20308e-14 -2.21763e-13 -4.32788e-14 20.737 6.52213 -0.0176929 -6.09947 -3.2875 8.90011 0.00112925 0.750718 0.105475 9.1914e-10 4.33785e-10 3.19009e-10 1.59192e-09 7.53814e-10 5.48867e-10 9.19144e-10 4.33785e-10 3.18999e-10 7.73091 5.47488 0.417314 9.1914e-10 4.33784e-10 3.19004e-10 2.90554 0.965183 0.102902 9.19145e-10 4.33784e-10 3.19004e-10 10.2786 0.731801 0.0259123 9.19131e-10 4.33786e-10 3.19015e-10 2.22167 -0.733487 -0.20892 -1.21441e-14 -2.21763e-13 -4.35789e-14 -19.8521 3.83419 1.16822 3.19847 -1.29623 -5.15334 -2.07353e-05 0.112353 -0.0157901 5.808e-10 -9.08805e-10 -9.24119e-10 1.00245e-09 -1.57443e-09 -1.60027e-09 5.80795e-10 -9.08803e-10 -9.24104e-10 -7.73091 5.47488 -0.417314 5.80801e-10 -9.08805e-10 -9.24122e-10 -2.90554 0.965183 -0.102902 5.80799e-10 -9.08805e-10 -9.24119e-10 -10.2786 0.731801 -0.0259123 5.80805e-10 -9.08803e-10 -9.24125e-10 -2.22167 -0.733487 0.20892 -2.03217e-16 0.0 -3.88251e-19 -0.972702 -9.34141 3.83241 0.00737063 12.8073 0.154467 -0.76414 -1.52655 -2.683 2.03217e-16 0.0 3.88251e-19 -0.97814 -5.22648 -0.0489695 -0.0170493 6.18145 -0.074466 0.811502 -1.01477 3.68493
39.0557 83.7886 45.682 179.912 -78.8848 -178.7 -3.21336 5.01461 2.26175 -0.63961 -1.11111 0.531848 -3.7271 4.28351 -1.26854 8.36802 -6.0896 -1.40618 -0.0 0.0 0.0 -0.0 0.0 0.0 -1.79415e-14 -5.01921e-13 -9.62522e-14 42.6712 13.4393 -0.0409648 -11.4365 -6.48588 18.3826 -0.00070286 1.5546 0.21848 2.00355e-09 9.35774e-10 6.61783e-10 3.46979e-09 1.62604e-09 1.13849e-09 2.00356e-09 9.35774e-10 6.61777e-10 7.73091 5.47488 0.417314 2.00355e-09 9.35773e-10 6.6178e-10 2.90554 0.965183 0.102902 2.00356e-09 9.35772e-10 6.61777e-10 10.2786 0.731801 0.0259123 2.00355e-09 9.35773e-10 6.61785e-10 2.22167 -0.733487 -0.20892 -1.79652e-14 -5.01922e-13 -9.64478e-14 -41.0133 7.87795 2.42672 6.33085 -2.6337 -10.6154 2.72811e-05 0.225453 -0.0316855 1.28224e-09 -1.94255e-09 -1.96114e-09 2.21318e-09 -3.36527e-09 -3.39604e-09 1.28224e-09 -1.94255e-09 -1.96112e-09 -7.73091 5.47488 -0.417314 1.28224e-09 -1.94255e-09 -1.96114e-09 -2.90554 0.965183 -0.102902 1.28224e-09 -1.94255e-09 -1.96114e-09 -10.2786 0.731801 -0.0259123 1.28225e-09 -1.94255e-09 -1.96114e-09 -2.22167 -0.733487 0.20892 -2.03217e-16 0.0 -3.88251e-19 -2.23443 -14.2588 8.10877 -0.049535 23.4149 0.345873 -1.40736 -5.10076 -5.67701 2.03217e-16 0.0 3.88251e-19 -1.93576 -8.31555 -0.135115 -0.0013312 14.1511 -0.233077 1.82726 -5.9186 7.7519
39.0941 83.7434 45.6381 181.102 -78.7103 -179.916 -5.14439 7.34854 3.28268 -0.986397 -1.62097 0.75351 -5.38739 6.24184 -1.86715 12.1335 -8.88537 -2.07981 -0.0 0.0 0.0 -0.0 0.0 0.0 -2.55538e-14 -6.65275e-13 -1.30433e-13 62.2236 19.5664 -0.0559671 -15.327 -8.91229 27.0081 -0.00490954 2.25212 0.316641 2.86358e-09 1.30141e-09 9.55278e-10 4.95912e-09 2.26154e-09 1.64359e-09 2.86358e-09 1.30141e-09 9.55274e-10 7.73091 5.47488 0.417314 2.86358e-09 1.30141e-09 9.55276e-10 2.90554 0.965183 0.102902 2.86359e-09 1.30141e-09 9.5527e-10 10.2786 0.731801 0.0259123 2.86358e-09 1.30141e-09 9.55276e-10 2.22167 -0.733487 -0.20892 -2.55014e-14 -6.65277e-13 -1.30538e-13 -60.0333 11.4832 3.56834 8.90403 -3.76306 -15.4903 0.000123576 0.337059 -0.0473711 1.84858e-09 -2.72633e-09 -2.7741e-09 3.1907e-09 -4.72314e-09 -4.80384e-09 1.84857e-09 -2.72632e-09 -2.77408e-09 -7.73091 5.47488 -0.417314 1.84858e-09 -2.72633e-09 -2.7741e-09 -2.90554 0.965183 -0.102902 1.84857e-09 -2.72633e-09 -2.7741e-09 -10.2786 0.731801 -0.0259123 1.84858e-09 -2.72633e-09 -2.7741e-09 -2.22167 -0.733487 0.20892 -2.03217e-16 0.0 -3.88251e-19 -2.76179 -18.5608 12.142 -0.1737 32.9858 0.556671 -2.27622 -8.19475 -8.32112 2.03217e-16 0.0 3.88251e-19 -2.85475 -11.042 -0.193278 0.0523832 21.2475 -0.388007 3.33011 -10.1877 11.4978
